<?xml version="1.0" encoding="UTF-8"?>
<svg version="1.1" xmlns="http://www.w3.org/2000/svg" width="1254" height="1254">
<path d="M0 0 C4.55524953 0.010277 9.11044697 -0.00294361 13.66568881 -0.01297333 C21.62564766 -0.02733187 29.58549774 -0.02703663 37.54546141 -0.01678469 C49.38275189 -0.00158084 61.21995153 -0.00942788 73.0572415 -0.02161792 C94.20560758 -0.04262761 115.35392519 -0.04087656 136.50229583 -0.02930227 C155.01068394 -0.01922308 173.51905431 -0.01662113 192.0274446 -0.02139284 C193.25718785 -0.02169838 194.48693109 -0.02200393 195.75393929 -0.02231872 C200.74641423 -0.02356417 205.73888916 -0.02483778 210.73136408 -0.02615778 C256.85747405 -0.03820795 302.98355437 -0.02794386 349.10965975 -0.00669182 C391.30957107 0.01273051 433.50943161 0.01183118 475.70934272 -0.00761416 C522.41818326 -0.02906797 569.12699669 -0.03751403 615.83584147 -0.0251651 C620.81930553 -0.02388232 625.80276959 -0.02263095 630.78623366 -0.02139284 C632.62669102 -0.02091838 632.62669102 -0.02091838 634.50432933 -0.02043433 C652.99600364 -0.01589312 671.48765824 -0.02118936 689.97932982 -0.03131106 C711.01551585 -0.04276842 732.05164601 -0.03984556 753.08782511 -0.01818808 C764.84687898 -0.00647959 776.60581172 -0.00562297 788.36486234 -0.02077278 C796.23542625 -0.02979063 804.10589374 -0.02407353 811.97644344 -0.0067537 C816.45004637 0.00269291 820.92341 0.00616017 825.39700477 -0.00837763 C886.27658048 -0.19123676 938.88870594 17.51013277 982.97374701 60.51387022 C994.82101815 72.45973168 1004.59732838 85.93022504 1012.97374701 100.51387022 C1013.33178412 101.13423155 1013.68982123 101.75459287 1014.05870795 102.39375303 C1034.29817196 137.83475723 1039.61814745 175.34053304 1039.48761723 215.5401232 C1039.47734023 220.09537273 1039.49056084 224.65057017 1039.50059056 229.20581201 C1039.5149491 237.16577087 1039.51465386 245.12562094 1039.50440192 253.08558462 C1039.48919806 264.92287509 1039.49704511 276.76007473 1039.50923515 288.5973647 C1039.53024484 309.74573079 1039.52849379 330.89404839 1039.5169195 352.04241904 C1039.50684031 370.55080714 1039.50423836 389.05917752 1039.50901007 407.5675678 C1039.50946838 409.41218267 1039.50946838 409.41218267 1039.50993595 411.29406249 C1039.5111814 416.28653743 1039.51245501 421.27901236 1039.51377501 426.27148729 C1039.52582518 472.39759725 1039.51556109 518.52367758 1039.49430905 564.64978295 C1039.47488672 606.84969427 1039.47578605 649.04955482 1039.49523139 691.24946592 C1039.5166852 737.95830646 1039.52513126 784.66711989 1039.51278233 831.37596468 C1039.51149955 836.35942873 1039.51024818 841.3428928 1039.50901007 846.32635687 C1039.50869376 847.55332844 1039.50837745 848.78030001 1039.50805156 850.04445253 C1039.50351035 868.53612685 1039.50880659 887.02778145 1039.51892829 905.51945303 C1039.53038565 926.55563906 1039.52746279 947.59176921 1039.50580531 968.62794831 C1039.49409681 980.38700218 1039.4932402 992.14593493 1039.50839001 1003.90498555 C1039.51740786 1011.77554945 1039.51169076 1019.64601694 1039.49437093 1027.51656664 C1039.48492432 1031.99016957 1039.48145706 1036.46353321 1039.49599486 1040.93712798 C1039.67885398 1101.81670368 1021.97748446 1154.42882914 978.97374701 1198.51387022 C967.02788555 1210.36114135 953.55739219 1220.13745159 938.97374701 1228.51387022 C938.35338568 1228.87190733 937.73302436 1229.22994444 937.0938642 1229.59883115 C901.65286 1249.83829517 864.14708419 1255.15827065 823.94749402 1255.02774043 C819.39224449 1255.01746344 814.83704705 1255.03068404 810.28180521 1255.04071376 C802.32184636 1255.0550723 794.36199629 1255.05477707 786.40203261 1255.04452512 C774.56474214 1255.02932127 762.7275425 1255.03716832 750.89025253 1255.04935835 C729.74188644 1255.07036804 708.59356884 1255.068617 687.44519819 1255.0570427 C668.93681009 1255.04696352 650.42843971 1255.04436157 631.92004943 1255.04913328 C630.69030618 1255.04943882 629.46056293 1255.04974436 628.19355474 1255.05005916 C623.2010798 1255.0513046 618.20860487 1255.05257821 613.21612994 1255.05389821 C567.09001997 1255.06594838 520.96393965 1255.0556843 474.83783428 1255.03443225 C432.63792296 1255.01500993 390.43806241 1255.01590925 348.23815131 1255.03535459 C301.52931076 1255.0568084 254.82049734 1255.06525447 208.11165255 1255.05290554 C203.12818849 1255.05162275 198.14472443 1255.05037139 193.16126036 1255.04913328 C191.93428879 1255.04881697 190.70731722 1255.04850066 189.44316469 1255.04817476 C170.95149038 1255.04363355 152.45983578 1255.0489298 133.9681642 1255.05905149 C112.93197817 1255.07050886 91.89584802 1255.06758599 70.85966892 1255.04592852 C59.10061504 1255.03422002 47.3416823 1255.0333634 35.58263168 1255.04851321 C27.71206778 1255.05753107 19.84160029 1255.05181397 11.97105059 1255.03449414 C7.49744766 1255.02504752 3.02408402 1255.02158027 -1.44951075 1255.03611807 C-62.32908645 1255.21897719 -114.94121191 1237.51760767 -159.02625299 1194.51387022 C-170.87352413 1182.56800875 -180.64983436 1169.0975154 -189.02625299 1154.51387022 C-189.3842901 1153.89350889 -189.74232721 1153.27314756 -190.11121393 1152.6339874 C-210.35067794 1117.19298321 -215.67065342 1079.6872074 -215.5401232 1039.48761723 C-215.52984621 1034.9323677 -215.54306681 1030.37717026 -215.55309654 1025.82192842 C-215.56745507 1017.86196957 -215.56715984 1009.90211949 -215.5569079 1001.94215582 C-215.54170404 990.10486534 -215.54955109 978.2676657 -215.56174112 966.43037573 C-215.58275081 945.28200965 -215.58099977 924.13369204 -215.56942547 902.9853214 C-215.55934629 884.47693329 -215.55674434 865.96856292 -215.56151605 847.46017263 C-215.56182159 846.23042938 -215.56212713 845.00068614 -215.56244193 843.73367794 C-215.56368737 838.741203 -215.56496098 833.74872807 -215.56628098 828.75625315 C-215.57833115 782.63014318 -215.56806707 736.50406286 -215.54681502 690.37795748 C-215.5273927 648.17804616 -215.52829202 605.97818561 -215.54773736 563.77827451 C-215.56919117 517.06943397 -215.57763724 470.36062054 -215.56528831 423.65177575 C-215.56400552 418.6683117 -215.56275416 413.68484764 -215.56151605 408.70138357 C-215.56119974 407.474412 -215.56088343 406.24744043 -215.56055754 404.9832879 C-215.55601632 386.49161359 -215.56131257 367.99995899 -215.57143426 349.50828741 C-215.58289163 328.47210138 -215.57996876 307.43597122 -215.55831129 286.39979212 C-215.54660279 274.64073825 -215.54574617 262.88180551 -215.56089598 251.12275489 C-215.56991384 243.25219098 -215.56419674 235.38172349 -215.54687691 227.51117379 C-215.5374303 223.03757086 -215.53396304 218.56420723 -215.54850084 214.09061246 C-215.73135996 153.21103675 -198.02999044 100.59891129 -155.02625299 56.51387022 C-143.08039152 44.66659908 -129.60989817 34.89028885 -115.02625299 26.51387022 C-114.40589166 26.15583311 -113.78553033 25.797796 -113.14637018 25.42890928 C-77.70536598 5.18944527 -40.19959017 -0.13053022 0 0 Z " fill="#650F9B" transform="translate(215.02625298779458,-0.5138702169060707)"/>
<path d="M0 0 C143.22 0 286.44 0 434 0 C434 123.09 434 246.18 434 373 C383.51 373 333.02 373 281 373 C281 428.44 281 483.88 281 541 C213.02 541 145.04 541 75 541 C75 558.82 75 576.64 75 595 C50.25 595 25.5 595 0 595 C0 398.65 0 202.3 0 0 Z " fill="#FDFDFD" transform="translate(411,327)"/>
</svg>
